<mxfile host="app.diagrams.net" modified="2021-03-06T10:26:13.614Z" agent="5.0 (Windows NT 10.0; Win64; x64) AppleWebKit/537.36 (KHTML, like Gecko) Chrome/88.0.4324.182 Safari/537.36" etag="6x2gmtsUv5gLeAzgn9BU" version="14.0.1" type="github">
  <diagram id="ZS9qUTMn806-23BdWWmp" name="Page-1">
    <mxGraphModel dx="1348" dy="703" grid="0" gridSize="10" guides="1" tooltips="1" connect="1" arrows="1" fold="1" page="1" pageScale="1" pageWidth="827" pageHeight="1169" background="none" math="0" shadow="0">
      <root>
        <mxCell id="0" />
        <mxCell id="1" parent="0" />
        <mxCell id="_L5JNgdixkdSD8Y0PR4u-4" value="" style="rounded=0;whiteSpace=wrap;html=1;sketch=1;gradientColor=none;" parent="1" vertex="1">
          <mxGeometry x="70" y="80" width="90" height="30" as="geometry" />
        </mxCell>
        <mxCell id="_L5JNgdixkdSD8Y0PR4u-5" value="" style="rounded=0;whiteSpace=wrap;html=1;sketch=1;gradientColor=none;" parent="1" vertex="1">
          <mxGeometry x="70" y="110" width="90" height="10" as="geometry" />
        </mxCell>
        <mxCell id="_L5JNgdixkdSD8Y0PR4u-6" value="" style="rounded=0;whiteSpace=wrap;html=1;sketch=1;gradientColor=none;" parent="1" vertex="1">
          <mxGeometry x="70" y="140" width="90" height="30" as="geometry" />
        </mxCell>
        <mxCell id="_L5JNgdixkdSD8Y0PR4u-7" value="" style="rounded=0;whiteSpace=wrap;html=1;sketch=1;fillColor=#f5f5f5;strokeColor=#666666;gradientColor=#b3b3b3;" parent="1" vertex="1">
          <mxGeometry x="70" y="120" width="90" height="20" as="geometry" />
        </mxCell>
        <mxCell id="tupv_SD9DHU6LTb3NPCC-2" value="" style="group" vertex="1" connectable="0" parent="1">
          <mxGeometry x="160" y="280" width="160" height="20" as="geometry" />
        </mxCell>
        <mxCell id="_L5JNgdixkdSD8Y0PR4u-31" value="" style="rounded=0;whiteSpace=wrap;html=1;sketch=1;gradientColor=none;" parent="tupv_SD9DHU6LTb3NPCC-2" vertex="1">
          <mxGeometry width="20" height="20" as="geometry" />
        </mxCell>
        <mxCell id="_L5JNgdixkdSD8Y0PR4u-32" value="" style="rounded=0;whiteSpace=wrap;html=1;sketch=1;gradientColor=none;" parent="tupv_SD9DHU6LTb3NPCC-2" vertex="1">
          <mxGeometry x="20" width="20" height="20" as="geometry" />
        </mxCell>
        <mxCell id="_L5JNgdixkdSD8Y0PR4u-34" value="" style="rounded=0;whiteSpace=wrap;html=1;sketch=1;gradientColor=none;" parent="tupv_SD9DHU6LTb3NPCC-2" vertex="1">
          <mxGeometry x="140" width="20" height="20" as="geometry" />
        </mxCell>
        <mxCell id="_L5JNgdixkdSD8Y0PR4u-35" value="" style="rounded=0;whiteSpace=wrap;html=1;sketch=1;gradientColor=none;" parent="tupv_SD9DHU6LTb3NPCC-2" vertex="1">
          <mxGeometry x="40" width="20" height="20" as="geometry" />
        </mxCell>
        <mxCell id="_L5JNgdixkdSD8Y0PR4u-36" value="" style="rounded=0;whiteSpace=wrap;html=1;sketch=1;gradientColor=none;" parent="tupv_SD9DHU6LTb3NPCC-2" vertex="1">
          <mxGeometry x="120" width="20" height="20" as="geometry" />
        </mxCell>
        <mxCell id="_L5JNgdixkdSD8Y0PR4u-37" value="" style="rounded=0;whiteSpace=wrap;html=1;sketch=1;gradientColor=none;" parent="tupv_SD9DHU6LTb3NPCC-2" vertex="1">
          <mxGeometry x="60" width="20" height="20" as="geometry" />
        </mxCell>
        <mxCell id="_L5JNgdixkdSD8Y0PR4u-38" value="" style="rounded=0;whiteSpace=wrap;html=1;sketch=1;gradientColor=none;" parent="tupv_SD9DHU6LTb3NPCC-2" vertex="1">
          <mxGeometry x="80" width="20" height="20" as="geometry" />
        </mxCell>
        <mxCell id="_L5JNgdixkdSD8Y0PR4u-39" value="" style="rounded=0;whiteSpace=wrap;html=1;sketch=1;gradientColor=none;" parent="tupv_SD9DHU6LTb3NPCC-2" vertex="1">
          <mxGeometry x="100" width="20" height="20" as="geometry" />
        </mxCell>
        <mxCell id="tupv_SD9DHU6LTb3NPCC-3" value="" style="group" vertex="1" connectable="0" parent="1">
          <mxGeometry x="320" y="280" width="160" height="20" as="geometry" />
        </mxCell>
        <mxCell id="tupv_SD9DHU6LTb3NPCC-4" value="" style="rounded=0;whiteSpace=wrap;html=1;sketch=1;gradientColor=none;" vertex="1" parent="tupv_SD9DHU6LTb3NPCC-3">
          <mxGeometry width="20" height="20" as="geometry" />
        </mxCell>
        <mxCell id="tupv_SD9DHU6LTb3NPCC-5" value="" style="rounded=0;whiteSpace=wrap;html=1;sketch=1;gradientColor=none;" vertex="1" parent="tupv_SD9DHU6LTb3NPCC-3">
          <mxGeometry x="20" width="20" height="20" as="geometry" />
        </mxCell>
        <mxCell id="tupv_SD9DHU6LTb3NPCC-6" value="" style="rounded=0;whiteSpace=wrap;html=1;sketch=1;gradientColor=none;" vertex="1" parent="tupv_SD9DHU6LTb3NPCC-3">
          <mxGeometry x="140" width="20" height="20" as="geometry" />
        </mxCell>
        <mxCell id="tupv_SD9DHU6LTb3NPCC-7" value="" style="rounded=0;whiteSpace=wrap;html=1;sketch=1;gradientColor=none;" vertex="1" parent="tupv_SD9DHU6LTb3NPCC-3">
          <mxGeometry x="40" width="20" height="20" as="geometry" />
        </mxCell>
        <mxCell id="tupv_SD9DHU6LTb3NPCC-8" value="" style="rounded=0;whiteSpace=wrap;html=1;sketch=1;gradientColor=none;" vertex="1" parent="tupv_SD9DHU6LTb3NPCC-3">
          <mxGeometry x="120" width="20" height="20" as="geometry" />
        </mxCell>
        <mxCell id="tupv_SD9DHU6LTb3NPCC-9" value="" style="rounded=0;whiteSpace=wrap;html=1;sketch=1;gradientColor=none;" vertex="1" parent="tupv_SD9DHU6LTb3NPCC-3">
          <mxGeometry x="60" width="20" height="20" as="geometry" />
        </mxCell>
        <mxCell id="tupv_SD9DHU6LTb3NPCC-10" value="" style="rounded=0;whiteSpace=wrap;html=1;sketch=1;gradientColor=none;" vertex="1" parent="tupv_SD9DHU6LTb3NPCC-3">
          <mxGeometry x="80" width="20" height="20" as="geometry" />
        </mxCell>
        <mxCell id="tupv_SD9DHU6LTb3NPCC-11" value="" style="rounded=0;whiteSpace=wrap;html=1;sketch=1;gradientColor=none;" vertex="1" parent="tupv_SD9DHU6LTb3NPCC-3">
          <mxGeometry x="100" width="20" height="20" as="geometry" />
        </mxCell>
        <mxCell id="tupv_SD9DHU6LTb3NPCC-12" value="" style="group" vertex="1" connectable="0" parent="1">
          <mxGeometry x="460" y="280" width="160" height="20" as="geometry" />
        </mxCell>
        <mxCell id="tupv_SD9DHU6LTb3NPCC-13" value="" style="rounded=0;whiteSpace=wrap;html=1;sketch=1;gradientColor=none;" vertex="1" parent="tupv_SD9DHU6LTb3NPCC-12">
          <mxGeometry width="20" height="20" as="geometry" />
        </mxCell>
        <mxCell id="tupv_SD9DHU6LTb3NPCC-14" value="" style="rounded=0;whiteSpace=wrap;html=1;sketch=1;gradientColor=none;" vertex="1" parent="tupv_SD9DHU6LTb3NPCC-12">
          <mxGeometry x="20" width="20" height="20" as="geometry" />
        </mxCell>
        <mxCell id="tupv_SD9DHU6LTb3NPCC-15" value="" style="rounded=0;whiteSpace=wrap;html=1;sketch=1;gradientColor=none;" vertex="1" parent="tupv_SD9DHU6LTb3NPCC-12">
          <mxGeometry x="140" width="20" height="20" as="geometry" />
        </mxCell>
        <mxCell id="tupv_SD9DHU6LTb3NPCC-16" value="" style="rounded=0;whiteSpace=wrap;html=1;sketch=1;gradientColor=none;" vertex="1" parent="tupv_SD9DHU6LTb3NPCC-12">
          <mxGeometry x="40" width="20" height="20" as="geometry" />
        </mxCell>
        <mxCell id="tupv_SD9DHU6LTb3NPCC-17" value="" style="rounded=0;whiteSpace=wrap;html=1;sketch=1;gradientColor=none;" vertex="1" parent="tupv_SD9DHU6LTb3NPCC-12">
          <mxGeometry x="120" width="20" height="20" as="geometry" />
        </mxCell>
        <mxCell id="tupv_SD9DHU6LTb3NPCC-18" value="" style="rounded=0;whiteSpace=wrap;html=1;sketch=1;gradientColor=none;" vertex="1" parent="tupv_SD9DHU6LTb3NPCC-12">
          <mxGeometry x="60" width="20" height="20" as="geometry" />
        </mxCell>
        <mxCell id="tupv_SD9DHU6LTb3NPCC-19" value="" style="rounded=0;whiteSpace=wrap;html=1;sketch=1;gradientColor=none;" vertex="1" parent="tupv_SD9DHU6LTb3NPCC-12">
          <mxGeometry x="80" width="20" height="20" as="geometry" />
        </mxCell>
        <mxCell id="tupv_SD9DHU6LTb3NPCC-20" value="" style="rounded=0;whiteSpace=wrap;html=1;sketch=1;gradientColor=none;" vertex="1" parent="tupv_SD9DHU6LTb3NPCC-12">
          <mxGeometry x="100" width="20" height="20" as="geometry" />
        </mxCell>
        <mxCell id="tupv_SD9DHU6LTb3NPCC-22" value="" style="rounded=0;whiteSpace=wrap;html=1;comic=1;" vertex="1" parent="1">
          <mxGeometry x="120" y="400" width="460" height="410" as="geometry" />
        </mxCell>
        <mxCell id="tupv_SD9DHU6LTb3NPCC-30" value="" style="rounded=0;whiteSpace=wrap;html=1;comic=1;" vertex="1" parent="1">
          <mxGeometry x="385" y="415" width="170" height="170" as="geometry" />
        </mxCell>
        <mxCell id="tupv_SD9DHU6LTb3NPCC-29" value="" style="rounded=0;whiteSpace=wrap;html=1;comic=1;" vertex="1" parent="1">
          <mxGeometry x="340" y="440" width="170" height="170" as="geometry" />
        </mxCell>
        <mxCell id="tupv_SD9DHU6LTb3NPCC-28" value="" style="rounded=0;whiteSpace=wrap;html=1;comic=1;" vertex="1" parent="1">
          <mxGeometry x="300" y="470" width="170" height="170" as="geometry" />
        </mxCell>
        <mxCell id="tupv_SD9DHU6LTb3NPCC-27" value="" style="rounded=0;whiteSpace=wrap;html=1;comic=1;" vertex="1" parent="1">
          <mxGeometry x="265" y="500" width="170" height="170" as="geometry" />
        </mxCell>
        <mxCell id="tupv_SD9DHU6LTb3NPCC-26" value="" style="rounded=0;whiteSpace=wrap;html=1;comic=1;" vertex="1" parent="1">
          <mxGeometry x="230" y="525" width="170" height="170" as="geometry" />
        </mxCell>
        <mxCell id="tupv_SD9DHU6LTb3NPCC-25" value="" style="rounded=0;whiteSpace=wrap;html=1;comic=1;" vertex="1" parent="1">
          <mxGeometry x="200" y="560" width="170" height="170" as="geometry" />
        </mxCell>
        <mxCell id="tupv_SD9DHU6LTb3NPCC-24" value="" style="rounded=0;whiteSpace=wrap;html=1;comic=1;" vertex="1" parent="1">
          <mxGeometry x="170" y="590" width="170" height="170" as="geometry" />
        </mxCell>
        <mxCell id="tupv_SD9DHU6LTb3NPCC-23" value="" style="rounded=0;whiteSpace=wrap;html=1;comic=1;" vertex="1" parent="1">
          <mxGeometry x="140" y="620" width="170" height="170" as="geometry" />
        </mxCell>
        <mxCell id="tupv_SD9DHU6LTb3NPCC-31" value="Bank 1" style="text;html=1;strokeColor=none;fillColor=none;align=center;verticalAlign=middle;whiteSpace=wrap;rounded=0;comic=1;" vertex="1" parent="1">
          <mxGeometry x="250" y="620" width="50" height="20" as="geometry" />
        </mxCell>
        <mxCell id="tupv_SD9DHU6LTb3NPCC-34" value="Bank 7" style="text;html=1;strokeColor=none;fillColor=none;align=center;verticalAlign=middle;whiteSpace=wrap;rounded=0;comic=1;" vertex="1" parent="1">
          <mxGeometry x="460" y="445" width="50" height="20" as="geometry" />
        </mxCell>
        <mxCell id="tupv_SD9DHU6LTb3NPCC-35" value="Bank 6" style="text;html=1;strokeColor=none;fillColor=none;align=center;verticalAlign=middle;whiteSpace=wrap;rounded=0;comic=1;" vertex="1" parent="1">
          <mxGeometry x="414" y="480" width="50" height="20" as="geometry" />
        </mxCell>
        <mxCell id="tupv_SD9DHU6LTb3NPCC-36" value="Bank 5" style="text;html=1;strokeColor=none;fillColor=none;align=center;verticalAlign=middle;whiteSpace=wrap;rounded=0;comic=1;" vertex="1" parent="1">
          <mxGeometry x="385" y="500" width="50" height="20" as="geometry" />
        </mxCell>
        <mxCell id="tupv_SD9DHU6LTb3NPCC-37" value="Bank 4" style="text;html=1;strokeColor=none;fillColor=none;align=center;verticalAlign=middle;whiteSpace=wrap;rounded=0;comic=1;" vertex="1" parent="1">
          <mxGeometry x="350" y="530" width="50" height="20" as="geometry" />
        </mxCell>
        <mxCell id="tupv_SD9DHU6LTb3NPCC-38" value="Bank 3" style="text;html=1;strokeColor=none;fillColor=none;align=center;verticalAlign=middle;whiteSpace=wrap;rounded=0;comic=1;" vertex="1" parent="1">
          <mxGeometry x="320" y="565" width="50" height="20" as="geometry" />
        </mxCell>
        <mxCell id="tupv_SD9DHU6LTb3NPCC-39" value="Bank 2" style="text;html=1;strokeColor=none;fillColor=none;align=center;verticalAlign=middle;whiteSpace=wrap;rounded=0;comic=1;" vertex="1" parent="1">
          <mxGeometry x="290" y="590" width="50" height="20" as="geometry" />
        </mxCell>
        <mxCell id="tupv_SD9DHU6LTb3NPCC-40" value="Bank 8" style="text;html=1;strokeColor=none;fillColor=none;align=center;verticalAlign=middle;whiteSpace=wrap;rounded=0;comic=1;" vertex="1" parent="1">
          <mxGeometry x="505" y="415" width="50" height="30" as="geometry" />
        </mxCell>
        <mxCell id="tupv_SD9DHU6LTb3NPCC-51" value="" style="rounded=0;whiteSpace=wrap;html=1;comic=1;fillColor=#fff2cc;strokeColor=#d6b656;sketch=1;" vertex="1" parent="1">
          <mxGeometry x="140" y="620" width="20" height="20" as="geometry" />
        </mxCell>
        <mxCell id="tupv_SD9DHU6LTb3NPCC-53" value="" style="rounded=0;whiteSpace=wrap;html=1;comic=1;fillColor=#fff2cc;strokeColor=#d6b656;sketch=1;" vertex="1" parent="1">
          <mxGeometry x="170" y="590" width="20" height="20" as="geometry" />
        </mxCell>
        <mxCell id="tupv_SD9DHU6LTb3NPCC-54" value="" style="rounded=0;whiteSpace=wrap;html=1;comic=1;fillColor=#fff2cc;strokeColor=#d6b656;sketch=1;" vertex="1" parent="1">
          <mxGeometry x="200" y="560" width="20" height="20" as="geometry" />
        </mxCell>
        <mxCell id="tupv_SD9DHU6LTb3NPCC-55" value="" style="rounded=0;whiteSpace=wrap;html=1;comic=1;fillColor=#fff2cc;strokeColor=#d6b656;sketch=1;" vertex="1" parent="1">
          <mxGeometry x="230" y="525" width="20" height="20" as="geometry" />
        </mxCell>
        <mxCell id="tupv_SD9DHU6LTb3NPCC-56" value="" style="rounded=0;whiteSpace=wrap;html=1;comic=1;fillColor=#fff2cc;strokeColor=#d6b656;sketch=1;" vertex="1" parent="1">
          <mxGeometry x="265" y="500" width="20" height="20" as="geometry" />
        </mxCell>
        <mxCell id="tupv_SD9DHU6LTb3NPCC-57" value="" style="rounded=0;whiteSpace=wrap;html=1;comic=1;fillColor=#fff2cc;strokeColor=#d6b656;sketch=1;" vertex="1" parent="1">
          <mxGeometry x="300" y="470" width="20" height="20" as="geometry" />
        </mxCell>
        <mxCell id="tupv_SD9DHU6LTb3NPCC-58" value="" style="rounded=0;whiteSpace=wrap;html=1;comic=1;fillColor=#fff2cc;strokeColor=#d6b656;sketch=1;" vertex="1" parent="1">
          <mxGeometry x="340" y="440" width="20" height="20" as="geometry" />
        </mxCell>
        <mxCell id="tupv_SD9DHU6LTb3NPCC-59" value="" style="rounded=0;whiteSpace=wrap;html=1;comic=1;fillColor=#fff2cc;strokeColor=#d6b656;sketch=1;" vertex="1" parent="1">
          <mxGeometry x="385" y="415" width="20" height="20" as="geometry" />
        </mxCell>
      </root>
    </mxGraphModel>
  </diagram>
</mxfile>
